<svg width="24" height="24" viewBox="0 0 24 24" fill="none" xmlns="http://www.w3.org/2000/svg">
<path d="M12 0C5.37 0 0 5.37 0 12C0 18.63 5.37 24 12 24C18.63 24 24 18.63 24 12C24 5.37 18.63 0 12 0ZM12 3.6C13.986 3.6 15.6 5.214 15.6 7.2C15.6 9.192 13.986 10.8 12 10.8C10.014 10.8 8.4 9.192 8.4 7.2C8.4 5.214 10.014 3.6 12 3.6ZM12 20.64C8.994 20.64 6.354 19.104 4.8 16.776C4.83 14.394 9.606 13.08 12 13.08C14.394 13.08 19.164 14.394 19.2 16.776C17.646 19.104 15.006 20.64 12 20.64Z" fill="white"/>
</svg>
