<svg width="48" height="48" viewBox="0 0 48 48" fill="none" xmlns="http://www.w3.org/2000/svg">
<path fill-rule="evenodd" clip-rule="evenodd" d="M24 0C10.7452 0 0 10.7452 0 24C0 37.2548 10.7452 48 24 48C37.2548 48 48 37.2548 48 24C48 10.7452 37.2548 0 24 0ZM11.5215 19.8779H16.9604V36.2196H11.5215V19.8779ZM17.319 14.8227C17.2837 13.2204 16.1378 12 14.2772 12C12.4166 12 11.2002 13.2204 11.2002 14.8227C11.2002 16.3918 12.3807 17.6473 14.2066 17.6473H14.2414C16.1378 17.6473 17.319 16.3918 17.319 14.8227ZM30.3132 19.4941C33.8923 19.4941 36.5755 21.8303 36.5755 26.8497L36.5753 36.2196H31.1366V27.4768C31.1366 25.2808 30.3495 23.7823 28.3806 23.7823C26.878 23.7823 25.983 24.7925 25.5899 25.7682C25.4461 26.1179 25.4108 26.6051 25.4108 27.0935V36.22H19.9712C19.9712 36.22 20.0429 21.4117 19.9712 19.8783H25.4108V22.193C26.1326 21.0803 27.4255 19.4941 30.3132 19.4941Z" fill="white"/>
</svg>
