<svg width="23" height="24" viewBox="0 0 23 24" fill="none" xmlns="http://www.w3.org/2000/svg">
<path d="M20.279 13.17C20.3263 12.786 20.3617 12.396 20.3617 12C20.3617 11.604 20.3263 11.214 20.279 10.83L22.7788 8.844C23.0034 8.664 23.0684 8.34 22.9207 8.076L20.5568 3.918C20.409 3.66 20.1017 3.552 19.8358 3.66L16.8927 4.866C16.284 4.392 15.6162 3.99 14.8952 3.684L14.4519 0.504C14.3988 0.222 14.1564 0 13.861 0H9.13313C8.83764 0 8.59534 0.222 8.54806 0.504L8.10483 3.684C7.38383 3.99 6.71603 4.386 6.10732 4.866L3.16424 3.66C2.8983 3.558 2.591 3.66 2.44325 3.918L0.0793359 8.076C-0.0684088 8.334 -0.00340102 8.658 0.221171 8.844L2.7151 10.83C2.66782 11.214 2.63236 11.604 2.63236 12C2.63236 12.396 2.66782 12.786 2.7151 13.17L0.221171 15.156C-0.00340102 15.336 -0.0684088 15.66 0.0793359 15.924L2.44325 20.082C2.591 20.34 2.8983 20.448 3.16424 20.34L6.10732 19.134C6.71603 19.608 7.38383 20.01 8.10483 20.316L8.54806 23.496C8.59534 23.778 8.83764 24 9.13313 24H13.861C14.1564 24 14.3988 23.778 14.446 23.496L14.8893 20.316C15.6103 20.01 16.2781 19.614 16.8868 19.134L19.8298 20.34C20.0958 20.442 20.4031 20.34 20.5508 20.082L22.9148 15.924C23.0625 15.666 22.9975 15.342 22.7729 15.156L20.279 13.17ZM11.497 16.2C9.20996 16.2 7.36019 14.322 7.36019 12C7.36019 9.678 9.20996 7.8 11.497 7.8C13.7841 7.8 15.6339 9.678 15.6339 12C15.6339 14.322 13.7841 16.2 11.497 16.2Z" fill="white"/>
</svg>
